# xmcd CD database file
#
# Track frame offsets:
#	150
#	16385
#	36700
#	58357
#	76182
#	94325
#	113992
#	128847
#	145405
#	164280
#
# Disc length: 2461 seconds
#
# Revision: 1
# Processed by: cddbd v1.5.1PL0 Copyright (c) Steve Scherf et al.
# Submitted via: CDex 1.50
#
DISCID=8f099b0a
DTITLE=刀根麻理子 - WITTY
DYEAR=1985
DGENRE=New Age
TTITLE0=RHAPSODHY AGEIN
TTITLE1=YOU DON'T HAVE TO GO
TTITLE2=MANNEQUN
TTITLE3=MIDNIGHT ESCAPE
TTITLE4=DELLINGER
TTITLE5=STREET HORIZON
TTITLE6=MIDAS TOUCH
TTITLE7=NEW YORK FANTASY
TTITLE8=NIGHT IMAGINATION
TTITLE9=DIRECT MAIL
EXTD=YEAR: 1985
EXTT0=
EXTT1=
EXTT2=
EXTT3=
EXTT4=
EXTT5=
EXTT6=
EXTT7=
EXTT8=
EXTT9=
PLAYORDER=
